<svg xmlns="http://www.w3.org/2000/svg" viewBox="0 0 438 303">
  <path fill="#00A1E0" d="M183 20.3c14.6-15.2 35.1-24.6 57.7-24.6c30.3 0 57 16.4 71.5 40.8c11.2-5 23.6-7.8 36.7-7.8c49.5 0 89.6 40.4 89.6 90.2s-40.1 90.2-89.6 90.2c-6.2 0-12.3-.7-18.1-1.9a64.8 64.8 0 0 1-57 33.9c-11.7 0-22.7-3.1-32.1-8.5a74.6 74.6 0 0 1-144.3-24.7c-4.8 1.1-9.8 1.6-15 1.6C37.6 209.5 1 172.6 1 127c0-25.7 11.5-48.7 29.8-64.2a74.4 74.4 0 0 1-5.5-28C25.3 15.6 56.4-8 93.4.1c9.3-17.8 28.1-30 49.8-30c21 0 39.4 11.5 49.8 28.6"/>
  <text x="219" y="164" font-family="'Arial', sans-serif" font-size="62" fill="white" text-anchor="middle" font-weight="300" letter-spacing="-1">sales<tspan font-style="italic">force</tspan></text>
</svg>
